<?xml version="1.0" encoding="UTF-8"?>
<svg id="Camada_1" xmlns="http://www.w3.org/2000/svg" version="1.1" viewBox="0 0 200 100">
  <!-- Generator: Adobe Illustrator 29.0.0, SVG Export Plug-In . SVG Version: 2.1.0 Build 186)  -->
  <defs>
    <style>
      .st0 {
        fill: #1a1a1a;
      }

      .st1 {
        fill: #ff8533;
      }
    </style>
  </defs>
  <g>
    <path class="st1" d="M58.81,42.85l.68.18v-2.77l-.68,2.59ZM70.39,55.59c.28,1.37.67,2.72,1.15,4.02v-4.02h-1.15ZM71.73,39.93l-2.7-.71v6.09h4.53v-9.27c-.7,1.23-1.32,2.53-1.83,3.89ZM78.72,41.77v3.55h4.53v-2.35l-4.53-1.2ZM76.95,58.11c-.44.82-.66,1.76-.66,2.82,0,1.84.62,3.23,1.87,4.15,1.25.93,2.92,1.52,5.02,1.8.03,0,.06.01.08.01-2.8-2.37-4.96-5.39-6.31-8.78ZM90.96,65.98c-.1-.13-.21-.26-.33-.38l-1.3,4.95c-.72-.29-1.42-.61-2.1-.98-.04.66-.33,1.19-.85,1.58-.58.43-1.43.65-2.57.65-1.24,0-2.21-.29-2.89-.85-.68-.57-1.04-1.31-1.07-2.24h-2.85c2.4,2.68,5.32,4.92,8.68,6.55.83-.11,1.59-.3,2.29-.57,1.21-.47,2.16-1.18,2.85-2.12s1.04-2.09,1.04-3.46-.3-2.34-.9-3.13ZM95.6,72.15v2.67h4.53v-2.61c-1.49.14-3,.12-4.53-.06ZM105.42,71.05v3.76h4.53v-5.95c-1.42.9-2.94,1.63-4.53,2.19ZM132.32,59.95c-.82-1.5-1.96-2.7-3.43-3.6-1.48-.89-3.15-1.34-5.04-1.34s-3.58.45-5.1,1.36c-.8.47-1.5,1.04-2.11,1.69l2.04.53c-1.15,2.72-2.8,5.13-4.79,7.12.07,1.66.5,3.2,1.28,4.62.22.4.46.78.73,1.14,1.12-.94,2.16-1.96,3.13-3.07.55-.64,1.08-1.31,1.58-2,.8-1.1,1.52-2.27,2.16-3.5.48-.93.92-1.89,1.3-2.89l4.17,1.1,5.03,1.33c-.2-.86-.52-1.7-.95-2.49ZM78.72,41.77v3.55h4.53v-2.35l-4.53-1.2ZM124.97,42.78c-.95-3.56-2.59-6.89-4.8-9.8-1.51-1.99-3.29-3.79-5.3-5.32-.74-.57-1.5-1.1-2.3-1.58-1.45-.89-3-1.66-4.63-2.28l2.95-11.23-5.9-1.56-2.94,11.18c-6.73-1-13.37.5-18.85,3.89-1.6.98-3.1,2.13-4.48,3.42v8.39c1.23-2.03,2.77-3.82,4.53-5.33,1.97-1.7,4.23-3.05,6.67-3.97,3.35-1.27,7.04-1.75,10.78-1.26l-.8,3.05c.08.04.16.09.24.14.86.53,1.51,1.32,1.93,2.35h3.48l.49-1.85.56-2.14c1.32.54,2.57,1.19,3.74,1.95,1.7,1.11,3.22,2.43,4.53,3.92,2.75,3.11,4.6,6.95,5.3,11.08.34,1.96.42,4,.22,6.05h4.31v-7.44l-.1-2.23c.11.2.24.39.37.57ZM99.38,55.59c-.96.24-1.98.26-2.99,0h-.79v15.15l2.72-10.37c.61-.03,1.22-.12,1.81-.25v-4.53h-.75ZM78.72,41.77v3.55h4.53v-2.35l-4.53-1.2Z"/>
    <path class="st1" d="M136.93,57.08l-1.56,5.91-2.1-.55c-.2-.86-.52-1.7-.95-2.49-.82-1.5-1.96-2.7-3.43-3.6-1.48-.89-3.15-1.34-5.04-1.34s-3.58.45-5.1,1.36c-.8.47-1.5,1.04-2.11,1.69l-6.69-1.76-3.27-.86c-.37.6-.79,1.15-1.26,1.65-1.41,1.51-3.25,2.57-5.29,3.03v-4.53h-.75c.07-.01.14-.03.21-.05.88-.24,1.68-.71,2.33-1.35.72-.69,1.31-1.63,1.59-2.71.3-1.14.25-2.24-.1-3.21-.25-.88-.73-1.62-1.31-2.25-.33-.32-.69-.61-1.08-.86-.51-.33-1.08-.59-1.69-.75-1.08-.28-2.18-.23-3.14.06-.69.22-1.36.54-1.93,1.03-.11.09-.21.18-.31.28-.79.67-1.38,1.61-1.68,2.75-.28,1.08-.23,2.18.06,3.14.25.88.71,1.68,1.36,2.32.69.73,1.62,1.31,2.7,1.6h-.79v15.15l-.36,1.37c.12.02.24.03.36.04v2.67h4.53v-2.61c1.82-.17,3.6-.56,5.29-1.15v3.76h4.53v-5.95c1.42-.89,2.74-1.95,3.94-3.16.07,1.66.5,3.2,1.28,4.62.22.4.46.78.73,1.14-5.99,5.04-13.99,7.5-22.15,6.29l-2.96,11.24-5.9-1.55,2.96-11.24c-.74-.29-1.47-.6-2.17-.94.83-.11,1.59-.3,2.29-.57,1.21-.47,2.16-1.18,2.85-2.12s1.04-2.09,1.04-3.46-.3-2.34-.9-3.13c-.1-.13-.21-.26-.33-.38l1.79-6.79c-2.92-1.79-4.8-5-4.91-8.42l-12-3.16c-.43,3.79.11,7.51,1.44,10.88-.44.82-.66,1.76-.66,2.82,0,1.84.62,3.23,1.87,4.15,1.25.93,2.92,1.52,5.02,1.8.03,0,.06.01.08.01,1.21,1.03,2.53,1.93,3.97,2.68-.04.66-.33,1.19-.85,1.58-.58.43-1.43.65-2.57.65-1.24,0-2.21-.29-2.89-.85-.68-.57-1.04-1.31-1.07-2.24h-2.85c-2.38-2.67-4.23-5.76-5.46-9.11v-4.02h-1.15c-.65-3.15-.77-6.45-.28-9.77l-10.62-2.79v-2.77l.87-3.31,8.67,2.28v6.09h4.53v-9.27c1.4-2.46,3.14-4.66,5.16-6.55v8.39c-.66,1.08-1.24,2.22-1.72,3.43l1.72.45v3.55h4.53v-2.35l5.87,1.54c.31-.51.66-.98,1.06-1.42.98-1.13,2.21-2.02,3.58-2.61,1.15-.5,2.41-.79,3.7-.84l2.44-9.26c.08.04.16.09.24.14.86.53,1.51,1.32,1.93,2.35h3.48l-1.42,5.41-.78,2.98c.52.3,1.01.65,1.45,1.04,1.81,1.57,2.99,3.76,3.33,6.16.06.36.09.72.1,1.08l1.72.45,10.34,2.72c.04-.28.07-.56.1-.83h4.31v-7.44l-.1-2.23c.11.2.24.39.37.57.97,3.62,1.23,7.47.66,11.33l11.3,2.97Z"/>
    <path class="st1" d="M100.53,50.69c-.38,1.46-1.91,2.35-3.37,1.97s-2.35-1.91-1.97-3.37,1.91-2.35,3.37-1.97,2.35,1.91,1.97,3.37Z"/>
  </g>
  <path class="st0" d="M1,19.86h4.06l8.78,11.86,8.83-11.86h4.06v25.45h-4.66v-17.98l-7.62,10.4h-1.25l-7.54-10.44v18.02H1v-25.45Z"/>
  <path class="st0" d="M36.34,44.91c-1.35-.65-2.42-1.69-3.19-3.12s-1.16-3.24-1.16-5.44v-10.27h4.49v10.14c0,1.78.38,3.14,1.15,4.07s1.9,1.39,3.4,1.39,2.63-.47,3.39-1.4,1.14-2.29,1.14-4.06v-10.14h4.51v10.27c0,2.21-.39,4.02-1.16,5.44s-1.83,2.45-3.18,3.12-2.91.99-4.68.99-3.35-.33-4.71-.98Z"/>
  <path class="st0" d="M71.61,27.92c-1.29-1.62-3.22-2.43-5.78-2.43-1.46,0-2.78.33-3.96.98-1.17.66-2.04,1.52-2.61,2.59v-2.99h-4.3v19.24h4.53v-9.83c0-1.21.23-2.25.7-3.13.47-.88,1.09-1.55,1.86-2,.78-.46,1.62-.69,2.53-.69,1.42,0,2.52.44,3.29,1.3.77.87,1.16,2.23,1.16,4.07v10.28h4.53v-10.37c0-3.06-.65-5.4-1.95-7.02Z"/>
  <rect class="st0" x="78.72" y="26.08" width="4.53" height="19.24"/>
  <path class="st0" d="M83.05,18.64c-.52-.49-1.21-.74-2.08-.74s-1.54.25-2.05.74c-.51.5-.76,1.11-.76,1.85s.25,1.37.76,1.86c.51.49,1.18.74,2.03.74s1.58-.25,2.1-.73c.51-.49.76-1.11.76-1.87s-.25-1.35-.76-1.85Z"/>
  <path class="st0" d="M104.13,38.28l-.78,2.98c.52.3,1.01.65,1.45,1.04.02-.02.03-.04.05-.06.88-1.16,1.49-2.48,1.83-3.96h-2.55ZM106.04,31.02c-.33-.7-.74-1.35-1.22-1.95-.88-1.12-1.98-1.99-3.31-2.62-1.32-.63-2.78-.95-4.39-.95-1.87,0-3.57.46-5.08,1.38-.8.48-1.51,1.05-2.12,1.71-.56.59-1.04,1.26-1.45,2-.86,1.56-1.29,3.26-1.29,5.11s.43,3.57,1.29,5.12c.47.85,1.04,1.61,1.71,2.27.98-1.13,2.21-2.02,3.58-2.61-.52-.42-.96-.96-1.32-1.59-.51-.91-.77-1.97-.77-3.19s.26-2.27.77-3.18c.51-.91,1.18-1.61,2.02-2.09.83-.48,1.73-.72,2.67-.72,1.04,0,1.96.22,2.77.67.08.04.16.09.24.14.86.53,1.51,1.32,1.93,2.35h4.63c-.17-.65-.39-1.27-.66-1.85Z"/>
  <polygon class="st0" points="114.14 18.15 111.32 23.79 114.35 23.79 117.49 19.33 114.14 18.15"/>
  <rect class="st0" x="110.34" y="26.08" width="4.53" height="19.24"/>
  <path class="st0" d="M139.24,30.58c-.8-1.55-1.92-2.78-3.35-3.69-1.42-.92-3.03-1.37-4.81-1.37-1.38,0-2.65.34-3.81,1.02-1.17.68-2.1,1.61-2.8,2.78v-3.24h-4.3v25.8h4.53v-7.44l-.1-2.23c.11.2.24.39.37.57.61.86,1.38,1.57,2.34,2.11,1.17.67,2.44,1.01,3.82,1.01,1.76,0,3.35-.46,4.76-1.37,1.42-.91,2.53-2.14,3.34-3.7.81-1.55,1.22-3.26,1.22-5.13s-.4-3.57-1.21-5.12ZM135.19,38.88c-.51.91-1.2,1.61-2.06,2.1-.86.5-1.8.74-2.82.74s-1.97-.26-2.84-.77c-.86-.52-1.55-1.24-2.06-2.16-.51-.91-.77-1.94-.77-3.09s.25-2.11.76-3.03c.5-.93,1.19-1.65,2.06-2.18.86-.53,1.81-.8,2.83-.8s1.99.25,2.85.76c.87.51,1.56,1.21,2.06,2.12.51.91.76,1.96.76,3.13s-.26,2.27-.77,3.18Z"/>
  <path class="st0" d="M144.6,22.34c-.51-.49-.76-1.11-.76-1.86s.25-1.35.76-1.84,1.19-.74,2.05-.74,1.57.25,2.08.74.77,1.11.77,1.84-.26,1.38-.77,1.87-1.21.73-2.1.73-1.52-.25-2.03-.74Z"/>
  <rect class="st0" x="144.4" y="26.08" width="4.53" height="19.23"/>
  <path class="st0" d="M157.79,44.52c-1.54-.91-2.75-2.14-3.62-3.7s-1.31-3.26-1.31-5.14.44-3.57,1.31-5.13,2.08-2.79,3.62-3.7,3.27-1.37,5.19-1.37,3.67.46,5.22,1.37,2.76,2.15,3.63,3.7,1.31,3.27,1.31,5.13-.44,3.59-1.31,5.15-2.09,2.79-3.64,3.7-3.3,1.36-5.23,1.36-3.63-.46-5.17-1.37ZM165.89,40.91c.85-.51,1.53-1.22,2.02-2.13s.74-1.94.74-3.09-.25-2.16-.74-3.08-1.17-1.63-2.03-2.15-1.82-.78-2.88-.78-2.02.26-2.88.78-1.54,1.23-2.03,2.15-.74,1.94-.74,3.08.25,2.18.74,3.09,1.17,1.62,2.02,2.13,1.82.77,2.89.77,2.04-.26,2.89-.77Z"/>
  <path class="st0" d="M179.45,44.95c-1.25-.62-2.18-1.45-2.79-2.47s-.92-2.12-.92-3.29l4.34.02c.04.92.4,1.67,1.08,2.24s1.64.85,2.89.85c1.14,0,1.99-.22,2.56-.65s.86-1.03.86-1.79c0-.52-.15-.94-.45-1.26s-.74-.56-1.31-.74-1.34-.34-2.3-.49c-2.1-.27-3.77-.87-5.01-1.8s-1.87-2.31-1.87-4.15c0-1.19.28-2.22.84-3.12s1.38-1.58,2.47-2.08,2.39-.74,3.93-.74,2.89.26,4.06.78,2.08,1.24,2.73,2.18.97,2.01.97,3.22l-4.43-.04c-.05-.74-.36-1.33-.93-1.77s-1.36-.66-2.39-.66c-.92,0-1.62.2-2.1.6s-.71.91-.71,1.53c0,.5.11.89.32,1.17s.6.52,1.16.71,1.41.38,2.54.55c1.5.22,2.75.54,3.77.94s1.82.99,2.42,1.78.9,1.83.9,3.12c0,1.37-.35,2.53-1.04,3.47s-1.64,1.65-2.85,2.11-2.61.7-4.19.7c-1.8,0-3.32-.31-4.57-.94Z"/>
  <path class="st0" d="M25.49,49.37c1.53,0,2.89.28,4.06.84s2.08,1.36,2.72,2.39.96,2.25.96,3.65c0,.72-.14,1.43-.43,2.12s-.68,1.3-1.17,1.81-1.03.9-1.62,1.15c.86.27,1.65.71,2.36,1.31s1.28,1.31,1.69,2.14.63,1.71.63,2.63c0,1.6-.38,2.95-1.14,4.07s-1.76,1.95-3,2.5-2.57.82-3.99.82h-12.16v-25.45h11.1ZM26.94,59.56c.5-.29.89-.69,1.18-1.2s.43-1.07.43-1.69-.14-1.17-.43-1.68-.68-.9-1.17-1.19-1.04-.43-1.66-.43h-6.19v6.62h6.17c.61,0,1.17-.15,1.67-.44ZM28.09,70.31c.58-.32,1.03-.75,1.36-1.32s.49-1.2.49-1.93c0-.65-.17-1.25-.5-1.8s-.78-.99-1.35-1.3-1.2-.47-1.9-.47h-7.09v7.3h7.05c.71,0,1.36-.16,1.94-.48Z"/>
  <path class="st0" d="M42.9,55.58v3.48c.46-1.09,1.13-1.94,2.01-2.56s1.93-.92,3.15-.92h2.06v3.89h-1.81c-1.04,0-1.95.25-2.73.75s-1.4,1.23-1.83,2.19-.65,2.11-.65,3.46v8.94h-4.53v-19.23h4.34Z"/>
  <path class="st0" d="M67.24,55.59v3.25c-.63-1.19-1.55-2.14-2.76-2.82-1.22-.68-2.61-1.01-4.19-1.01-1.68,0-3.21.45-4.59,1.37s-2.46,2.16-3.26,3.72c-.79,1.56-1.18,3.26-1.18,5.1s.39,3.57,1.18,5.13c.78,1.56,1.87,2.8,3.25,3.71,1.39.91,2.93,1.36,4.62,1.36,1.56,0,2.95-.33,4.17-1.01,1.21-.67,2.13-1.61,2.76-2.8v3.23h4.3v-19.23h-4.3ZM66.3,68.23c-.5.92-1.18,1.64-2.05,2.17-.87.53-1.82.8-2.85.8s-1.97-.24-2.83-.73c-.86-.49-1.54-1.18-2.06-2.09-.51-.92-.76-1.98-.76-3.19s.25-2.21.75-3.12c.51-.91,1.19-1.62,2.05-2.13.86-.5,1.81-.75,2.85-.75s1.98.27,2.84.8c.86.54,1.55,1.26,2.05,2.18.51.92.76,1.93.76,3.02s-.25,2.13-.75,3.04Z"/>
  <path class="st0" d="M90.96,65.98c-.1-.13-.21-.26-.33-.38-.55-.6-1.25-1.07-2.09-1.4-1.02-.4-2.28-.71-3.77-.93-1.14-.18-1.99-.36-2.55-.56-.56-.19-.95-.43-1.16-.71-.21-.28-.32-.67-.32-1.16,0-.63.24-1.14.72-1.54.47-.4,1.17-.6,2.09-.6,1.02,0,1.82.22,2.39.66.56.45.87,1.04.92,1.77l4.44.04c0-1.21-.33-2.28-.98-3.22-.64-.93-1.55-1.66-2.73-2.18-1.17-.52-2.52-.77-4.06-.77s-2.84.24-3.93.73c-1.08.5-1.91,1.19-2.47,2.08-.06.1-.12.2-.18.3-.44.82-.66,1.76-.66,2.82,0,1.84.62,3.23,1.87,4.15,1.25.93,2.92,1.52,5.02,1.8.03,0,.06.01.08.01.92.15,1.66.31,2.22.48.57.17,1.01.41,1.31.73.3.32.45.74.45,1.27,0,.07,0,.13-.01.2-.04.66-.33,1.19-.85,1.58-.58.43-1.43.65-2.57.65-1.24,0-2.21-.29-2.89-.85-.68-.57-1.04-1.31-1.07-2.24h-2.85s-1.49-.02-1.49-.02c0,1.18.3,2.27.91,3.3.61,1.02,1.54,1.84,2.79,2.47,1.25.62,2.77.93,4.57.93.67,0,1.3-.04,1.9-.13.83-.11,1.59-.3,2.29-.57,1.21-.47,2.16-1.18,2.85-2.12s1.04-2.09,1.04-3.46-.3-2.34-.9-3.13Z"/>
  <path class="st0" d="M95.6,55.59v19.23h4.53v-19.23h-4.53Z"/>
  <path class="st0" d="M106.68,55.43c-.37.6-.79,1.15-1.26,1.65v17.73h4.53v-18.52l-3.27-.86Z"/>
  <path class="st0" d="M133.45,66.4c.06-.6.1-1.11.1-1.53,0-.84-.09-1.65-.28-2.43-.2-.86-.52-1.7-.95-2.49-.82-1.5-1.96-2.7-3.43-3.6-1.48-.89-3.15-1.34-5.04-1.34s-3.58.45-5.1,1.36c-.8.47-1.5,1.04-2.11,1.69-.57.6-1.06,1.27-1.47,2.02-.86,1.56-1.29,3.27-1.29,5.12,0,.17,0,.34.01.51.07,1.66.5,3.2,1.28,4.62.22.4.46.78.73,1.14.77,1.04,1.71,1.89,2.85,2.57,1.52.91,3.22,1.36,5.1,1.36,1.54,0,2.94-.3,4.22-.91,1.28-.6,2.34-1.41,3.19-2.42.85-1.01,1.44-2.11,1.78-3.29h-4.94c-.34.83-.86,1.47-1.58,1.91-.72.45-1.64.67-2.76.67-.89,0-1.71-.2-2.46-.59-.76-.39-1.39-.96-1.89-1.71-.14-.21-.27-.43-.38-.66-.3-.59-.49-1.26-.6-2h15.02ZM118.61,62.9c.37-1.29,1.02-2.28,1.98-2.95.95-.66,2.03-.99,3.24-.99.88,0,1.69.17,2.45.53.75.35,1.37.83,1.84,1.44.05.06.09.12.12.18.4.55.63,1.15.68,1.79h-10.31Z"/>
  <path class="st0" d="M137.43,51.85c-.51-.49-.76-1.11-.76-1.86s.25-1.35.76-1.85,1.19-.74,2.05-.74,1.57.24,2.08.74.77,1.11.77,1.85-.26,1.38-.77,1.87-1.21.73-2.1.73-1.52-.25-2.03-.74Z"/>
  <rect class="st0" x="137.23" y="55.58" width="4.53" height="19.23"/>
  <path class="st0" d="M151.4,55.58v3.48c.46-1.09,1.13-1.94,2.01-2.56s1.93-.92,3.15-.92h2.06v3.89h-1.81c-1.04,0-1.95.25-2.73.75s-1.4,1.23-1.83,2.19-.65,2.11-.65,3.46v8.94h-4.53v-19.23h4.34Z"/>
  <path class="st0" d="M164.69,74.03c-1.54-.91-2.75-2.15-3.62-3.7s-1.31-3.26-1.31-5.13.44-3.57,1.31-5.13,2.08-2.79,3.62-3.7,3.27-1.37,5.19-1.37,3.67.46,5.22,1.37,2.76,2.15,3.63,3.7,1.31,3.27,1.31,5.13-.44,3.59-1.31,5.15-2.09,2.79-3.64,3.69-3.3,1.36-5.23,1.36-3.63-.46-5.17-1.37ZM172.79,70.42c.85-.51,1.53-1.22,2.02-2.13s.74-1.94.74-3.09-.25-2.16-.74-3.08-1.17-1.63-2.03-2.15-1.82-.77-2.88-.77-2.02.26-2.88.77-1.54,1.23-2.03,2.15-.74,1.95-.74,3.08.25,2.18.74,3.09,1.17,1.62,2.02,2.13,1.82.77,2.89.77,2.04-.26,2.89-.77Z"/>
  <path class="st0" d="M186.35,74.46c-1.25-.62-2.18-1.45-2.79-2.47s-.92-2.12-.92-3.29l4.34.02c.04.92.4,1.67,1.08,2.23s1.64.85,2.89.85c1.14,0,1.99-.22,2.56-.65s.86-1.02.86-1.78c0-.52-.15-.95-.45-1.27s-.74-.56-1.31-.74-1.34-.34-2.3-.49c-2.1-.27-3.77-.87-5.01-1.8s-1.87-2.31-1.87-4.15c0-1.19.28-2.23.84-3.12s1.38-1.58,2.47-2.08,2.39-.74,3.93-.74,2.89.26,4.06.77,2.08,1.25,2.73,2.18.97,2.01.97,3.22l-4.43-.04c-.05-.74-.36-1.33-.93-1.77s-1.36-.66-2.39-.66c-.92,0-1.62.2-2.1.6s-.71.91-.71,1.53c0,.5.11.89.32,1.17s.6.52,1.16.71,1.41.38,2.54.56c1.5.22,2.75.54,3.77.94s1.82.99,2.42,1.78.9,1.83.9,3.12c0,1.37-.35,2.53-1.04,3.47s-1.64,1.65-2.85,2.11-2.61.7-4.19.7c-1.8,0-3.32-.31-4.57-.94Z"/>
</svg>